<svg width="96" height="96" viewBox="0 0 96 96" fill="none" xmlns="http://www.w3.org/2000/svg">
<rect width="96" height="96" rx="15" fill="#E5F6F7"/>
<path d="M63.3532 25.9568H65.7914C68.1284 25.9568 70.0182 27.8466 70.0182 30.1836V66.7482C70.0182 69.0852 68.1284 70.975 65.7914 70.975H29.2268C26.8898 70.975 25 69.0852 25 66.7482V30.192C25 27.8551 26.8898 25.9653 29.2268 25.9653H31.5047" fill="#E5F6F7"/>
<path d="M63.3532 25.9568H65.7914C68.1284 25.9568 70.0182 27.8466 70.0182 30.1836V66.7482C70.0182 69.0852 68.1284 70.975 65.7914 70.975H29.2268C26.8898 70.975 25 69.0852 25 66.7482V30.192C25 27.8551 26.8898 25.9653 29.2268 25.9653H31.5047" stroke="#00A3BD" stroke-width="3" stroke-miterlimit="10"/>
<path d="M36.1953 25.9568H58.6707" stroke="#00A3BD" stroke-width="3" stroke-miterlimit="10"/>
<path d="M25.0083 37.5742H70.0349" stroke="#00A3BD" stroke-width="3" stroke-miterlimit="10"/>
<path d="M34.0356 22V29.6521" stroke="#00A3BD" stroke-width="3" stroke-miterlimit="10" stroke-linecap="round"/>
<path d="M61.0083 22V29.6521" stroke="#00A3BD" stroke-width="3" stroke-miterlimit="10" stroke-linecap="round"/>
<path d="M47.0198 57.9405C47.0198 59.2397 46.5643 60.3449 45.6447 61.273C44.7251 62.1926 43.6199 62.6481 42.3206 62.6481C41.0214 62.6481 39.9161 62.1926 38.9881 61.273C38.0685 60.3449 37.6129 59.2397 37.6129 57.9405C37.6129 57.7464 37.6889 57.5777 37.8323 57.4343C37.9673 57.2908 38.136 57.2149 38.3385 57.2149C38.541 57.2149 38.7097 57.2908 38.8447 57.4343C38.9881 57.5777 39.064 57.7464 39.064 57.9405C39.064 58.8432 39.3846 59.6109 40.0174 60.2437C40.6501 60.8764 41.4263 61.197 42.3206 61.197C43.2149 61.197 43.9826 60.8764 44.6238 60.2437C45.2566 59.6109 45.5772 58.8347 45.5772 57.9405C45.5772 57.0462 45.2566 56.2784 44.6238 55.6372C43.9826 55.0045 43.2149 54.6839 42.3206 54.6839C42.0591 54.6839 41.8481 54.5742 41.7047 54.3549C41.5697 54.1271 41.5529 53.8993 41.6541 53.6546L44.8432 46.7618H38.33C38.1276 46.7618 37.9588 46.6859 37.8238 46.5425C37.6804 46.4075 37.6045 46.2388 37.6045 46.0363C37.6045 45.8338 37.6804 45.6651 37.8238 45.5132C37.9588 45.3782 38.1276 45.3107 38.33 45.3107H45.9653C46.2268 45.3107 46.4293 45.4204 46.5727 45.6398C46.7161 45.8676 46.733 46.0953 46.6233 46.34L43.3836 53.3678C44.4382 53.6124 45.3072 54.1608 45.9906 55.0129C46.6739 55.865 47.0198 56.8437 47.0198 57.9489V57.9405Z" fill="#00A3BD" stroke="#00A3BD" stroke-miterlimit="10"/>
<path d="M55.6669 47.0654L52.5369 48.2044C52.3429 48.2719 52.1573 48.2634 51.9801 48.1791C51.7945 48.0947 51.6679 47.9513 51.6089 47.7657C51.5329 47.5801 51.5414 47.3944 51.6342 47.2088C51.7185 47.0317 51.8535 46.9051 52.0476 46.8376L56.1562 45.3528C56.3925 45.2684 56.6118 45.2937 56.8227 45.4371C57.0252 45.5806 57.1265 45.783 57.1265 46.0277V61.9309C57.1265 62.1334 57.059 62.3021 56.924 62.4371C56.7806 62.5805 56.6034 62.6564 56.4009 62.6564C56.1984 62.6564 56.0297 62.5805 55.8947 62.4371C55.7513 62.3021 55.6754 62.1334 55.6754 61.9309V47.0654H55.6669Z" fill="#00A3BD" stroke="#00A3BD" stroke-miterlimit="10"/>
</svg>
