<svg width="96" height="96" viewBox="0 0 96 96" fill="none" xmlns="http://www.w3.org/2000/svg">
<rect width="96" height="96" rx="15" fill="#1D232B"/>
<path fill-rule="evenodd" clip-rule="evenodd" d="M57.7761 21C57.7761 21 58.4427 24.9948 55.2403 28.8436V28.8428C51.8203 32.952 47.9335 32.2798 47.9335 32.2798C47.9335 32.2798 47.2032 29.0484 50.0703 25.2696C53.2945 21.021 57.7761 21 57.7761 21ZM66.6958 37.7061C66.6958 37.7061 61.3896 40.4192 61.3896 47.0022V47.003C61.3896 54.4291 68 56.9883 68 56.9883C68 56.9883 63.3789 69.9947 57.1377 69.9947C55.7296 69.9947 54.4892 69.5286 53.2269 69.0543C51.919 68.5628 50.5876 68.0626 49.0217 68.0626C47.3157 68.0626 45.6168 68.6783 44.1024 69.2271C42.8848 69.6684 41.7865 70.0664 40.8999 70.0664C35.2004 70.0664 28 57.5687 28 47.8115C28 38.0543 34.0945 32.9351 39.811 32.9351C41.97 32.9351 43.8482 33.6587 45.422 34.265C46.5569 34.7022 47.5335 35.0784 48.343 35.0784C48.9924 35.0784 49.8594 34.729 50.9144 34.3038C52.554 33.6429 54.648 32.7989 57.0861 32.7989C63.9827 32.7989 66.6958 37.7061 66.6958 37.7061Z" fill="white"/>
</svg>
