<svg width="100" height="100" viewBox="0 0 100 100" fill="none" xmlns="http://www.w3.org/2000/svg">
<mask id="mask0_2_841" style="mask-type:alpha" maskUnits="userSpaceOnUse" x="0" y="0" width="100" height="100">
<rect x="0.5" y="0.5" width="99" height="99" rx="21.5" fill="#65C9D1" stroke="#F1F1F1"/>
</mask>
<g mask="url(#mask0_2_841)">
<rect width="100" height="100" rx="22" fill="#65C9D1"/>
<path d="M61.484 116C57.9015 116 54.4646 115.181 51.2749 113.564L50.5881 112.681L43.9557 83.4235C42.9255 82.7012 40.3645 80.6922 36.4735 76.2356C31.2525 70.2525 31.1128 58.7951 31.3136 53.9584L26.2032 29.7014C25.9326 28.4176 26.1741 27.1075 26.8871 26.0168C27.5798 24.9523 28.6391 24.2271 29.8672 23.9756C32.3264 23.458 34.7535 25.0781 35.3821 27.6602L37.8034 37.5911L35.4141 19.5015C35.1988 18.1066 35.5306 16.7146 36.3571 15.58C37.1632 14.4688 38.3477 13.7435 39.6864 13.5388C42.3725 13.1265 44.8986 15.0215 45.4399 17.8463L45.4457 17.8814L48.0329 33.655L46.7757 12.3779C46.3741 9.35126 48.4316 6.52348 51.3826 6.06144C54.2201 5.61987 56.9324 7.52066 57.564 10.3835L57.5901 10.5561L59.8339 37.1437L61.8449 15.9894L61.8944 15.7379C62.5434 13.5564 64.4699 12.0445 66.6905 11.9773C67.127 11.9656 67.5635 12.0094 67.9913 12.1089C70.6222 12.72 72.3567 15.3197 71.9696 18.051L70.7706 48.6011C70.9365 49.338 71.0587 50.1597 71.2013 51.0984C71.2741 51.578 71.3527 52.0897 71.44 52.6307L72.3189 54.7157C73.5091 54.4233 74.4841 54.3093 75.0719 54.2654C76.0905 53.2331 78.9164 50.9054 83.8056 50.7592C88.7006 50.613 92.0968 53.6893 93.6422 56.6195C94.0642 57.4207 94.1165 58.3623 93.7819 59.2104C93.4472 60.0555 92.7691 60.7047 91.9164 60.9913C87.583 62.4593 80.0688 66.3369 79.2423 66.7667C76.2011 68.9044 72.8864 72.7264 71.0704 74.9547L69.7608 79.4815C69.4406 80.5869 69.4726 81.742 69.851 82.8269L78.6603 107.066L78.4042 108.397C74.0941 113.225 67.9273 115.994 61.4811 115.994L61.484 116ZM53.0007 111.482C55.6694 112.734 58.5185 113.368 61.484 113.368C66.9262 113.368 72.1472 111.137 75.9246 107.218L67.386 83.7218C66.8185 82.1017 66.7719 80.3881 67.2463 78.7563L68.6287 73.9722L68.8702 73.5101C70.7444 71.1912 74.3968 66.9451 77.8192 64.5618L77.9618 64.477C78.3023 64.2986 86.3229 60.1169 91.0812 58.5056C91.247 58.4501 91.3198 58.3185 91.3489 58.2454C91.378 58.1723 91.4158 58.0231 91.3314 57.8623C90.761 56.7803 88.5434 53.2477 83.8841 53.3969C79.0124 53.5431 76.7948 56.2598 76.7046 56.3767L75.6715 56.8797C75.6715 56.8797 74.0592 56.8914 71.958 57.5581L70.3574 56.8154L68.9692 53.5197L68.8848 53.2244C68.7829 52.6103 68.6956 52.0342 68.6141 51.499C68.4686 50.5399 68.3435 49.7123 68.1834 49.0339L68.1485 48.6771L69.3737 17.7264C69.5949 16.3257 68.7276 14.9864 67.4035 14.6793C67.1939 14.6296 66.9815 14.6091 66.7719 14.615C65.7184 14.6472 64.7959 15.3519 64.4408 16.3871L61.9177 42.9426L61.8682 43.194C61.484 44.4866 60.5673 45.2966 59.5604 45.2615C58.8677 45.2352 58.0325 44.7673 57.7589 43.5245L57.7327 43.352L54.9913 10.8777C54.6246 9.40683 53.2306 8.43596 51.7871 8.66406C50.2273 8.90677 49.1475 10.4333 49.3775 12.0621L49.3891 12.1703L51.3681 45.6826C51.4175 46.3026 51.1876 46.8991 50.7336 47.3231C50.2825 47.7472 49.6743 47.9314 49.0661 47.832C48.2425 47.6945 47.5906 47.0453 47.4392 46.2178L42.8643 18.3288C42.5879 16.9281 41.3423 15.9485 40.0792 16.1415C39.4361 16.2409 38.8628 16.5918 38.4699 17.1328C38.0566 17.703 37.8908 18.4019 38.0013 19.1067L38.0072 19.1418L41.9069 48.6654C41.9855 49.1976 41.8545 49.7298 41.5373 50.1656C41.2201 50.5983 40.7573 50.882 40.2335 50.961C39.2178 51.1218 38.2545 50.4755 38.0013 49.4608L32.8386 28.2919C32.5505 27.1134 31.4562 26.3326 30.3969 26.5578C29.8527 26.6689 29.387 26.9906 29.0786 27.4643C28.7526 27.9644 28.642 28.5697 28.7672 29.1604L33.9125 53.5782L33.9386 53.9086C33.3333 67.53 37.233 73.1124 38.4437 74.5015C43.1554 79.8997 45.7513 81.4642 45.7746 81.4818L46.3945 82.3269L53.0065 111.485L53.0007 111.482ZM48.7518 45.8844C48.7518 45.8844 48.7518 45.8961 48.7518 45.9019V45.8844Z" fill="#3A3A3C"/>
<path d="M91.3487 58.2395C91.3778 58.1664 91.4157 58.0173 91.3313 57.8564C90.7609 56.7744 88.5433 53.2419 83.884 53.391C79.0122 53.5372 76.7946 56.2539 76.7044 56.3709L75.6713 56.8739C75.6713 56.8739 74.059 56.8856 71.9578 57.5523L70.3572 56.8095L68.969 53.5139L68.8846 53.2185C68.7828 52.6044 68.6955 52.0283 68.614 51.4932C68.4685 50.534 68.3433 49.7064 68.1833 49.028L68.1483 48.6712L69.3735 17.7206C69.5947 16.3198 68.7275 14.9805 67.4033 14.6735C67.1938 14.6238 66.9813 14.6033 66.7718 14.6091C65.7183 14.6413 64.7957 15.3461 64.4407 16.3813L61.9175 42.9367L61.868 43.1882C61.4839 44.4807 60.5672 45.2908 59.5602 45.2557C58.8676 45.2294 58.0323 44.7615 57.7588 43.5186L57.7326 43.3461L54.9912 10.8719C54.6245 9.40098 53.2305 8.43011 51.787 8.65821C50.2271 8.90092 49.1474 10.4274 49.3773 12.0562L49.3889 12.1644L51.3679 45.6768C51.4174 46.2967 51.1875 46.8933 50.7335 47.3173C50.2824 47.7413 49.6742 47.9255 49.0659 47.8261C48.2423 47.6887 47.5904 47.0395 47.4391 46.2119L42.8642 18.323C42.5877 16.9222 41.3421 15.9426 40.0791 16.1356C39.4359 16.235 38.8626 16.586 38.4697 17.1269C38.0565 17.6972 37.8906 18.3961 38.0012 19.1008L38.007 19.1359L41.9067 48.6595C41.9853 49.1918 41.8543 49.724 41.5371 50.1597C41.2199 50.5925 40.7572 50.8761 40.2333 50.9551C39.2177 51.1159 38.2544 50.4697 38.0012 49.4549L32.8384 28.286C32.5503 27.1075 31.4561 26.3268 30.3967 26.5519C29.8525 26.663 29.3869 26.9847 29.0784 27.4585C28.7525 27.9585 28.6419 28.5638 28.767 29.1545L33.9123 53.5723L33.9385 53.9028C33.3332 67.5241 37.2329 73.1066 38.4435 74.4956C43.1552 79.8938 45.7512 81.4583 45.7744 81.4759L46.3943 82.321L53.0064 111.479C55.6751 112.731 58.5242 113.365 61.4897 113.365C66.9319 113.365 72.1528 111.134 75.9303 107.215L67.3917 83.7188C66.8242 82.0988 66.7776 80.3851 67.252 78.7534L68.6343 73.9692L68.8759 73.5072C70.7501 71.1883 74.4024 66.9422 77.8249 64.5589L77.9675 64.4741C78.308 64.2957 86.3286 60.114 91.0868 58.5027C91.2527 58.4471 91.3255 58.3155 91.3546 58.2424L91.3487 58.2395Z" fill="#FCDEDC"/>
<path d="M70.3488 56.7774C70.3488 56.7774 58.9669 59.4823 53.938 69.5857C53.938 69.5857 55.8704 57.8272 70.3488 56.7774Z" fill="#D6B5B4"/>
<path d="M46.8369 84.5522C46.8369 84.5522 52.8029 89.5469 63.661 82.6222C63.9869 82.4146 64.3449 82.8298 64.0946 83.1223L50.2157 99.2468L46.8398 84.5522H46.8369Z" fill="#D6B5B4"/>
<path d="M51.9994 51.1481C53.0674 51.1481 54.1792 51.2797 55.0493 51.5049C56.8158 51.964 58.2622 53.046 58.8239 54.3297C59.1295 55.0286 59.5776 57.0639 59.1266 62.8716C59.112 63.0558 59.0945 63.24 59.0771 63.4184C58.5882 68.0417 56.3415 72.3609 52.7502 75.5834L19.233 105.654C16.803 105.595 10.3975 104.958 5.811 100.206C2.41767 96.6909 0.674435 91.5617 0.619141 84.9441L41.7495 64.8308L43.1435 64.1466L43.2192 62.5908C43.3211 60.5409 44.2727 54.2478 47.2382 52.3003C48.3674 51.5604 50.0553 51.151 51.9965 51.151L51.9994 51.1481Z" fill="white"/>
<path d="M61.222 53.2653C60.25 51.0516 58.0382 49.5602 55.7071 48.9549C54.7177 48.6975 53.4051 48.5133 51.9995 48.5133C49.9041 48.5133 47.5934 48.9198 45.8094 50.0924C41.0308 53.2331 40.6059 62.4622 40.6059 62.4622L-1.97958 83.286C-2.70423 107.154 16.0784 108.289 19.658 108.289C20.0335 108.289 20.243 108.277 20.243 108.277L54.4965 77.5456C58.4922 73.9634 61.1202 69.0447 61.6848 63.6962C61.7081 63.4915 61.7255 63.2839 61.743 63.0763C62.0544 59.0466 62.0747 55.207 61.225 53.2682L61.222 53.2653ZM59.1296 62.8686C59.115 63.0529 59.0976 63.2371 59.0801 63.4155C58.5912 68.0388 56.3445 72.358 52.7533 75.5805L19.2361 105.651C16.806 105.592 10.4006 104.955 5.81403 100.203C2.4207 96.688 0.677464 91.5588 0.62217 84.9412L41.7526 64.8279L43.1466 64.1436L43.2222 62.5879C43.3241 60.538 44.2757 54.2449 47.2413 52.2973C47.477 52.1423 47.7447 52.0049 48.027 51.8792C47.5876 53.4437 47.0608 55.8006 47.0841 58.0348C47.0899 58.7571 47.6749 59.339 48.3937 59.339H48.4054C49.13 59.3332 49.7091 58.7366 49.7033 58.0114C49.6771 55.2041 50.7074 52.0049 50.9838 51.192C51.3127 51.1656 51.6503 51.1481 51.9995 51.1481C52.2352 51.1481 52.4739 51.1569 52.7096 51.1686C52.2527 52.6541 51.531 55.4263 51.5571 58.0348C51.563 58.7571 52.1479 59.339 52.8668 59.339H52.8784C53.603 59.3332 54.1822 58.7366 54.1764 58.0114C54.1531 55.5404 54.9476 52.7681 55.3259 51.5867C56.9644 52.0839 58.2914 53.1161 58.824 54.3326C59.1296 55.0315 59.5778 57.0668 59.1267 62.8745L59.1296 62.8686Z" fill="#3A3A3C"/>
<path d="M43.1467 64.1436C43.1467 64.1436 43.7607 65.5385 47.1162 66.0123C47.1977 66.024 47.2006 66.138 47.1192 66.1497C45.7834 66.3339 42.1718 66.6556 41.6421 64.8835L43.1467 64.1436Z" fill="#C57229"/>
<path d="M39.8434 74.0306C35.1114 77.7474 34.6661 80.5693 32.6202 85.7717C30.5743 90.974 26.3836 88.2982 22.2423 92.904C18.101 97.5097 21.3547 103.75 21.3547 103.75L48.3093 79.5692C48.1609 75.7063 44.5755 70.3139 39.8434 74.0306Z" fill="#E5925A"/>
<path d="M33.9329 68.6529L13.084 78.8499C13.084 78.8499 18.2933 82.9146 23.2669 79.4786C28.2405 76.0425 33.9358 68.6499 33.9358 68.6499L33.9329 68.6529Z" fill="#FFE2B3"/>
</g>
</svg>
