<svg width="96" height="96" viewBox="0 0 96 96" fill="none" xmlns="http://www.w3.org/2000/svg">
<rect width="96" height="96" rx="15" fill="#E5F6F7"/>
<path d="M46.903 75.8334C46.903 75.8334 48.8785 50.2932 32.9994 42.7958V49.5971H29.9421C26.0758 49.5971 22.9433 52.7296 22.9433 56.5959H18.9923C18.9923 56.5959 15.8409 63.7923 20.7702 66.8496C25.6995 69.9069 30.8264 67.2447 28.3617 76.125L46.903 75.8334V75.8334Z" stroke="#00A3BD" stroke-width="3" stroke-miterlimit="10"/>
<path d="M28.2957 59.1641C28.9711 59.1641 29.5186 58.2375 29.5186 57.0945C29.5186 55.9515 28.9711 55.025 28.2957 55.025C27.6203 55.025 27.0728 55.9515 27.0728 57.0945C27.0728 58.2375 27.6203 59.1641 28.2957 59.1641Z" fill="#00A3BD"/>
<path d="M49.2638 27.942C49.9505 40.6604 38.314 54.4699 35.4542 37.9982C34.0243 29.767 36.9123 25.0258 40.1483 22.3542C42.8105 20.1624 46.1971 19.0618 49.6401 19.0241C52.6503 18.9865 57.4761 18.9677 60.0066 19.1652C63.8541 19.4569 65.1335 24.7907 65.1335 24.7907L76.77 25.0823C79.8273 37.509 68.0873 35.8345 63.3556 37.1139C61.2013 37.6971 60.1101 39.0141 59.5551 40.2841C58.9719 41.6199 58.9907 43.1344 59.4893 44.4985C61.239 49.2866 67.0713 66.4639 64.4938 75.9086H45.247" stroke="#00A3BD" stroke-width="3" stroke-miterlimit="10"/>
<path d="M77.4758 29.72C77.4758 29.72 72.048 30.4067 72.349 24.3956" stroke="#00A3BD" stroke-width="3" stroke-miterlimit="10"/>
<path d="M59.4329 28.657C60.1083 28.657 60.6558 27.7304 60.6558 26.5874C60.6558 25.4444 60.1083 24.5179 59.4329 24.5179C58.7575 24.5179 58.21 25.4444 58.21 26.5874C58.21 27.7304 58.7575 28.657 59.4329 28.657Z" fill="#00A3BD"/>
</svg>
