<svg width="96" height="96" viewBox="0 0 96 96" fill="none" xmlns="http://www.w3.org/2000/svg">
<rect width="96" height="96" rx="15" fill="#E5F6F7"/>
<path d="M39.04 64.66L41.37 47.89H54.42L57.68 64.66" fill="#E5F6F7"/>
<path d="M39.04 64.66L41.37 47.89H54.42L57.68 64.66" stroke="#00A3BD" stroke-width="3" stroke-miterlimit="10"/>
<path d="M48.3599 57.2C56.3349 57.2 62.7999 48.6486 62.7999 38.1C62.7999 27.5514 56.3349 19 48.3599 19C40.3849 19 33.9199 27.5514 33.9199 38.1C33.9199 48.6486 40.3849 57.2 48.3599 57.2Z" fill="#E5F6F7" stroke="#00A3BD" stroke-width="3" stroke-miterlimit="10"/>
<path d="M73.72 77.84C73.72 70.59 67.79 64.66 60.54 64.66H58.25C55.79 67.31 52.27 68.98 48.36 68.98C44.45 68.98 40.94 67.32 38.47 64.66H36.18C28.93 64.66 23 70.59 23 77.84" fill="#E5F6F7"/>
<path d="M73.72 77.84C73.72 70.59 67.79 64.66 60.54 64.66H58.25C55.79 67.31 52.27 68.98 48.36 68.98C44.45 68.98 40.94 67.32 38.47 64.66H36.18C28.93 64.66 23 70.59 23 77.84" stroke="#00A3BD" stroke-width="3" stroke-miterlimit="10"/>
<path d="M34.71 29.93C37.35 31.21 40.34 31.94 43.52 31.94L44.13 31.91L45.03 31.87C46.66 31.75 48.22 31.44 49.71 30.96C50.93 30.57 52.1 30.07 53.2 29.47C55.1 32.5 58.63 34.55 62.67 34.55" fill="#E5F6F7"/>
<path d="M34.71 29.93C37.35 31.21 40.34 31.94 43.52 31.94L44.13 31.91L45.03 31.87C46.66 31.75 48.22 31.44 49.71 30.96C50.93 30.57 52.1 30.07 53.2 29.47C55.1 32.5 58.63 34.55 62.67 34.55" stroke="#00A3BD" stroke-width="3" stroke-miterlimit="10"/>
</svg>
